<?xml version="1.0" encoding="utf-8"?>
<!-- Svg Vector Icons : http://www.onlinewebfonts.com/icon -->
<!DOCTYPE svg PUBLIC "-//W3C//DTD SVG 1.1//EN" "http://www.w3.org/Graphics/SVG/1.1/DTD/svg11.dtd">
<svg version="1.1" xmlns="http://www.w3.org/2000/svg" xmlns:xlink="http://www.w3.org/1999/xlink" x="0px" y="0px" viewBox="0 0 1000 1000" enable-background="new 0 0 1000 1000" xml:space="preserve">
<metadata> Svg Vector Icons : http://www.onlinewebfonts.com/icon </metadata>
<g><path d="M519.3,363.4c-117.5-2-226.4,0.7-371.6,8.9c-7.9,1.1-8.9-4.4-5.9-8.5l93.9-117.4c4.1-5.1,8.6-7.9,15.3-8.7c166.7-11.3,237.9-10.1,404,0c6.6,0.8,11.1,3.6,15.3,8.7l17.3,27.3c15.8-3.7,36.6-8.5,53.2-9.7L698,213.5c-4.1-5-13-14.6-29.8-16.7c-168.1-10.7-262.5-11.1-430.6,0c-16.8,2.1-25.7,11.7-29.8,16.7L131,308.4H41.8c-10.1,0-20.7,8.3-23.4,18.5l-8.1,30.4c-1.1,4,1.7,5.7,5.4,7.4l50.8,23.2l-20.6,25.4c-12.6,16-18.8,37.2-18.3,64.1v255c0,10.3,8.5,18.9,18.9,18.9h138.2c10.4,0,18.9-8.5,18.9-18.9v-25.3h280.7c-23.5-43.4-36.8-93.2-36.8-146C447.3,485.8,474.4,416.8,519.3,363.4z M240.8,503.2c0,4.5-3.7,8.1-8.2,7.9l-123.2-4.6c-18-0.7-32.8-16.1-32.8-34.2v-25.5c0-6.8,5.6-12.7,12.3-11.9l123.2,15.3c15.7,1.9,28.7,14.1,28.7,29.9V503.2z M733.4,296.5c-141.7,0-256.6,115.3-256.6,257.4c0,142.2,114.9,257.4,256.6,257.4c141.7,0,256.6-115.3,256.6-257.4C990,411.8,875.1,296.5,733.4,296.5z M733.4,767.5c-117.6,0-212.9-95.6-212.9-213.6c0-118,95.3-213.6,212.9-213.6S946.3,436,946.3,553.9C946.3,671.9,851,767.5,733.4,767.5z M633.3,418.5l-18.7,49.2c-2.3,4.7-5.8,7.4-10.5,8.2h-8.2v41h17.5v166.2h40.8V481.8c0-3.9,1.2-8.6,3.5-14l19.8-49.2L633.3,418.5L633.3,418.5z M790.8,417.4h-44.3V456h-80.5v36.3h81.7V545h-68.8v133.4h148.2c17.9-1.6,28-11.7,30.3-30.4V545h-65.3v-52.7h68.8V456h-70L790.8,417.4L790.8,417.4z M815.3,578.9v56.2c-1.6,7-5.1,10.9-10.5,11.7h-82.8v-67.9H815.3z"/><path d="M519.3,363.4c-117.5-2-226.4,0.7-371.6,8.9c-7.9,1.1-8.9-4.4-5.9-8.5l93.9-117.4c4.1-5.1,8.6-7.9,15.3-8.7c166.7-11.3,237.9-10.1,404,0c6.6,0.8,11.1,3.6,15.3,8.7l17.3,27.3c15.8-3.7,36.6-8.5,53.2-9.7L698,213.5c-4.1-5-13-14.6-29.8-16.7c-168.1-10.7-262.5-11.1-430.6,0c-16.8,2.1-25.7,11.7-29.8,16.7L131,308.4H41.8c-10.1,0-20.7,8.3-23.4,18.5l-8.1,30.4c-1.1,4,1.7,5.7,5.4,7.4l50.8,23.2l-20.6,25.4c-12.6,16-18.8,37.2-18.3,64.1v255c0,10.3,8.5,18.9,18.9,18.9h138.2c10.4,0,18.9-8.5,18.9-18.9v-25.3h280.7c-23.5-43.4-36.8-93.2-36.8-146C447.3,485.8,474.4,416.8,519.3,363.4z M240.8,503.2c0,4.5-3.7,8.1-8.2,7.9l-123.2-4.6c-18-0.7-32.8-16.1-32.8-34.2v-25.5c0-6.8,5.6-12.7,12.3-11.9l123.2,15.3c15.7,1.9,28.7,14.1,28.7,29.9V503.2z M733.4,296.5c-141.7,0-256.6,115.3-256.6,257.4c0,142.2,114.9,257.4,256.6,257.4c141.7,0,256.6-115.3,256.6-257.4C990,411.8,875.1,296.5,733.4,296.5z M733.4,767.5c-117.6,0-212.9-95.6-212.9-213.6c0-118,95.3-213.6,212.9-213.6S946.3,436,946.3,553.9C946.3,671.9,851,767.5,733.4,767.5z M633.3,418.5l-18.7,49.2c-2.3,4.7-5.8,7.4-10.5,8.2h-8.2v41h17.5v166.2h40.8V481.8c0-3.9,1.2-8.6,3.5-14l19.8-49.2L633.3,418.5L633.3,418.5z M790.8,417.4h-44.3V456h-80.5v36.3h81.7V545h-68.8v133.4h148.2c17.9-1.6,28-11.7,30.3-30.4V545h-65.3v-52.7h68.8V456h-70L790.8,417.4L790.8,417.4z M815.3,578.9v56.2c-1.6,7-5.1,10.9-10.5,11.7h-82.8v-67.9H815.3z"/></g>
</svg>