<?xml version="1.0" encoding="utf-8"?>
<!-- Svg Vector Icons : http://www.onlinewebfonts.com/icon -->
<!DOCTYPE svg PUBLIC "-//W3C//DTD SVG 1.1//EN" "http://www.w3.org/Graphics/SVG/1.1/DTD/svg11.dtd">
<svg version="1.1" xmlns="http://www.w3.org/2000/svg" xmlns:xlink="http://www.w3.org/1999/xlink" x="0px" y="0px" viewBox="0 0 1000 1000" enable-background="new 0 0 1000 1000" xml:space="preserve">
<metadata> Svg Vector Icons : http://www.onlinewebfonts.com/icon </metadata>
<g><g><g><path d="M989.9,664.5h-28.9V557.7h-63l-87.2-150.5H452.5l-87.2,150.5H187.5v106.8h-21.8v60.2h21.8v37.6h125.1c7,36.1,38.8,63.3,76.9,63.3c38.1,0,69.8-27.3,76.9-63.3h231.9c7,36.1,38.8,63.3,76.9,63.3s69.9-27.3,76.9-63.3h109v-37.6H990L989.9,664.5L989.9,664.5z M389.5,795.5c-26.6,0-48.3-21.6-48.3-48.3c0-26.6,21.7-48.3,48.3-48.3s48.3,21.7,48.3,48.3C437.8,773.9,416.1,795.5,389.5,795.5z M775.2,795.5c-26.6,0-48.3-21.6-48.3-48.3c0-26.6,21.7-48.3,48.3-48.3c26.6,0,48.3,21.7,48.3,48.3C823.4,773.9,801.8,795.5,775.2,795.5z M930.9,732.1H852c-7.1-36.1-38.8-63.3-76.9-63.3c-38.1,0-69.8,27.3-76.9,63.3H466.4c-7-36.1-38.8-63.3-76.9-63.3c-38.1,0-69.8,27.3-76.9,63.3h-95V587.8h165l87.2-150.5h323.6l87.2,150.5h50.3L930.9,732.1L930.9,732.1z"/><rect x="618.2" y="467.4" width="141.9" height="117.3"/><polygon points="790.2,584.7 844.1,584.7 790.2,491.8 "/><polygon points="419.2,584.7 588.1,584.7 588.1,467.4 487.2,467.4 "/><path d="M338.4,493.2l3.5-157.1L176.6,174.4L10,343.7l165.4,161.7L338.4,493.2z M140.7,369.5c-15.4-14.9-16.5-37.1-2.7-56.8l-18.7-18.2l11.1-11.5l18,17.3c11.1-10.7,21.4-15.4,29.8-17.7l7.7,16.5c-5.9,1.7-17.3,5.4-28.8,17.2c-13.8,14.3-10.5,27.9-3.1,35c9.6,9.3,21.1,7.2,43.3-2.5c26.2-11.5,45.1-11.8,61.7,4.2c14.6,14.2,18.4,37.6,3.1,59.7l19.2,18.6L269.9,443l-18.7-18.1c-10.6,10.5-24.7,18.4-35.6,20.3l-8.1-16.5c10.9-2.3,23.7-8.6,33.8-18.9c12.7-13.2,13.8-29.3,3.2-39.6c-10.2-9.9-23.5-8.8-42.3-0.5C176.5,381.7,156.7,385.1,140.7,369.5z"/></g></g><g></g><g></g><g></g><g></g><g></g><g></g><g></g><g></g><g></g><g></g><g></g><g></g><g></g><g></g><g></g></g>
</svg>